<?xml version="1.0" encoding="UTF-8"?>
<svg width="500px" height="500px" viewBox="0 0 500 500" version="1.1" xmlns="http://www.w3.org/2000/svg" xmlns:xlink="http://www.w3.org/1999/xlink">
    <!-- Generator: Sketch 55.2 (78181) - https://sketchapp.com -->
    <title>Github Profile</title>
    <desc>Created with Sketch.</desc>
    <g id="Github-Profile" stroke="none" stroke-width="1" fill="none" fill-rule="evenodd" opacity="0.5">
        <g id="gopher-copy" transform="translate(60.000000, 43.000000)">
            <g id="Group-3" transform="translate(0.000000, 226.000000)" stroke="#000000" stroke-linecap="round" stroke-width="3">
                <path d="M3.64988247,24.5457027 C4.40372657,40.0832672 19.9295604,32.894024 26.9618208,28.0367471 C33.6368933,23.4250962 35.5885996,27.2584385 36.1747035,18.1574564 C36.5585325,12.1756272 37.2482407,6.193798 36.9088135,0.188294035 C26.8148014,-0.726144561 15.8357132,1.67684618 7.56020209,7.68728239 C3.29762809,10.7837471 -4.69469818,20.6669836 3.64988247,24.5457027" id="Path" fill="#F6D2A2"></path>
                <path d="M2.55172414,26.1538462 C4.88127615,25.2064364 7.35019438,24.5336866 8.93103448,22.2307692" id="Path" fill="#C6B198"></path>
            </g>
            <path d="M35.0390147,98 C-25.2616172,81.4444751 19.5770835,6.54820205 68,37.3540151 L35.0390147,98 Z" id="Path" stroke="#000000" stroke-width="3" fill="#6AD7E5" stroke-linecap="round"></path>
            <path d="M301,31.2659217 C348.360428,-1.48567717 391.158171,72.4079012 336.116199,91 L301,31.2659217 Z" id="Path" stroke="#000000" stroke-width="3" fill="#6AD7E5" stroke-linecap="round"></path>
            <path d="M37.4147613,78 C29.6734279,73.7319272 23.9941794,67.9353406 28.7294815,58.6029884 C33.1134799,49.9633866 41.2576935,50.9015918 49,55.1696646 L37.4147613,78 Z" id="Path" fill="#000000" fill-rule="nonzero"></path>
            <path d="M324.585239,70 C332.326572,65.7319272 338.005821,59.9353406 333.270518,50.6029884 C328.88652,41.9633866 320.742307,42.9015918 313,47.1696646 L324.585239,70 Z" id="Path" fill="#000000" fill-rule="nonzero"></path>
            <g id="Group-2" transform="translate(344.000000, 226.000000)" stroke="#000000" stroke-linecap="round" stroke-width="3">
                <path d="M33.3503008,24.5457027 C32.5964526,40.0832672 17.0705334,32.894024 10.0382344,28.0367471 C3.36312522,23.4250962 1.41140815,27.2584385 0.825301006,18.1574564 C0.441469895,12.1756272 -0.248242051,6.193798 0.0911870039,0.188294035 C10.1852545,-0.726144561 21.1644031,1.67684618 29.4399597,7.68728239 C33.7015704,10.7837471 41.6949273,20.6669836 33.3503008,24.5457027" id="Path" fill="#F6D2A2"></path>
                <path d="M34.4482759,24.8461538 C32.1187238,23.8987441 29.6498056,23.2259942 28.0689655,20.9230769" id="Path" fill="#C6B198"></path>
            </g>
            <path d="M328.21766,66.007449 C354.459588,130.407038 339.678743,159.04425 343.680741,227.105361 C347.117821,285.547052 347.891682,282.438195 354.906481,349.515366 C356.535252,365.090054 359.25577,414.988317 338.343893,414.988317 C325.420246,414.988317 322.334909,365.621517 296.804363,365.621517 C271.551072,365.621517 262.912694,415.226383 243.387122,414.988317 C222.607355,414.734959 218.395674,365.621517 191.890857,365.621517 C166.280966,365.621517 167.08838,415.878333 142.18361,414.988317 C118.709812,414.148642 116.195284,372.404579 80.6459048,365.621517 C63.3259233,362.316748 52.9512205,401.636868 37.8935225,409.578755 C23.1085859,417.37678 22.9028816,374.053698 24.8839533,360.389533 C32.0997039,310.619902 31.4227925,293.514537 33.6418301,238.508495 C36.2701855,173.351042 15.0479288,149.945061 36.4622857,86.1864361 C58.6774385,20.0462371 118.590462,5.09898603 183.071393,0 C242.898192,0 298.981666,8.55246676 328.21766,66.007449 Z" id="Gost" stroke="#000000" stroke-width="3" fill="#6AD7E5" stroke-linecap="round"></path>
            <path d="M194.104258,80.4917008 C204.77135,143.197678 306.131353,126.618211 291.572614,63.3757746 C278.517779,6.66440228 190.55906,22.3620465 194.104258,80.4917008" id="Path" stroke="#000000" stroke-width="2.9081" fill="#FFFFFF" stroke-linecap="round"></path>
            <path d="M71.1459694,90.3687211 C85.0803097,145.001824 172.193,131.014355 168.909547,76.2119246 C164.975355,10.5774982 57.8236807,23.2422183 71.1459694,90.3687211" id="Path" stroke="#000000" stroke-width="2.8214" fill="#FFFFFF" stroke-linecap="round"></path>
            <path d="M206.053606,155.839855 C206.100095,163.798965 207.934401,172.734624 206.368924,181.201928 C204.255683,185.042045 200.11005,185.448212 196.536438,187 C191.594424,186.254714 187.438685,183.134618 185.456826,178.69011 C184.188477,169.025684 185.929804,159.668312 186.250176,150 L206.053606,155.839855 Z" id="Path" stroke="#000000" stroke-width="3" fill="#FFFFFF" stroke-linecap="round"></path>
            <g id="Group" transform="translate(80.000000, 66.000000)">
                <ellipse id="Oval" fill="#000000" fill-rule="nonzero" cx="15.324" cy="15.9069091" rx="14.829" ry="15.5752727"></ellipse>
                <ellipse id="Oval" fill="#FFFFFF" cx="22.069" cy="19.4220606" rx="3.496" ry="3.95830303"></ellipse>
            </g>
            <g id="Group" transform="translate(203.000000, 62.000000)">
                <ellipse id="Oval" fill="#000000" fill-rule="nonzero" cx="15.571" cy="15.9069091" rx="14.582" ry="15.5752727"></ellipse>
                <ellipse id="Oval" fill="#FFFFFF" cx="22.204" cy="19.4220606" rx="3.438" ry="3.95830303"></ellipse>
            </g>
            <path d="M163.89539,154.505863 C157.674012,169.872887 167.364747,200.602033 184.245165,177.936654 C183.038391,168.189178 184.695181,158.751396 185,149 L163.89539,154.505863 Z" id="Path" stroke="#000000" stroke-width="3" fill="#FFFFFF" stroke-linecap="round"></path>
            <g id="Group" transform="translate(147.000000, 106.000000)">
                <path d="M18.2034568,18.673 C6.29333333,19.701 -3.44197531,34.039 2.75061728,45.382 C10.9511111,60.406 29.2553086,44.053 40.6558025,45.585 C53.7767901,45.857 64.5274074,59.632 75.065679,48.075 C86.7861728,35.221 70.0197531,22.702 56.9155556,17.105 L18.2034568,18.673 Z" id="Path" stroke="#231F20" stroke-width="3" fill="#F6D2A2" stroke-linecap="round"></path>
                <path d="M16.7041975,18.045 C15.8222222,-2.846 55.1614815,-5.458 59.8074074,12.029 C64.4414815,29.475 18.6409877,33.527 16.7041975,18.045 C15.1585185,5.682 16.7041975,18.045 16.7041975,18.045 Z" id="Path" fill="#000000" fill-rule="nonzero"></path>
            </g>
        </g>
    </g>
</svg>